<svg xmlns="http://www.w3.org/2000/svg" xmlns:xlink="http://www.w3.org/1999/xlink" preserveAspectRatio="xMidYMid meet" width="300" height="300" viewBox="0 0 300 300" style="width:100%;height:100%"><defs><animate repeatCount="indefinite" dur="80.0133467s" begin="0s" xlink:href="#_R_G_L_10_G_D_0_P_0" fill="freeze" attributeName="d" attributeType="XML" from="M-216.31 53.75 C-216.31,53.75 -216.37,53.75 -216.37,53.75 C-216.37,53.75 -216.37,53.75 -216.37,53.75 C-216.37,53.75 -216.19,53.81 -216.19,53.81 C-216.19,53.81 -216.31,53.75 -216.31,53.75z " to="M-216.25 -60.5 C-216.25,-60.5 -246.87,-52.25 -246.87,-52.25 C-246.87,-52.25 -246.37,-20 -246.37,-20 C-246.37,-20 -216.87,53.88 -216.87,53.88 C-216.87,53.88 -216.25,-60.5 -216.25,-60.5z " keyTimes="0;0.0329441;0.0412844;1" values="M-216.31 53.75 C-216.31,53.75 -216.37,53.75 -216.37,53.75 C-216.37,53.75 -216.37,53.75 -216.37,53.75 C-216.37,53.75 -216.19,53.81 -216.19,53.81 C-216.19,53.81 -216.31,53.75 -216.31,53.75z ;M-216.31 53.75 C-216.31,53.75 -216.37,53.75 -216.37,53.75 C-216.37,53.75 -216.37,53.75 -216.37,53.75 C-216.37,53.75 -216.19,53.81 -216.19,53.81 C-216.19,53.81 -216.31,53.75 -216.31,53.75z ;M-216.25 -60.5 C-216.25,-60.5 -246.87,-52.25 -246.87,-52.25 C-246.87,-52.25 -246.37,-20 -246.37,-20 C-246.37,-20 -216.87,53.88 -216.87,53.88 C-216.87,53.88 -216.25,-60.5 -216.25,-60.5z ;M-216.25 -60.5 C-216.25,-60.5 -246.87,-52.25 -246.87,-52.25 C-246.87,-52.25 -246.37,-20 -246.37,-20 C-246.37,-20 -216.87,53.88 -216.87,53.88 C-216.87,53.88 -216.25,-60.5 -216.25,-60.5z " keySplines="0.606 0 0.236 1;0.606 0 0.236 1;0 0 0 0" calcMode="spline"/><animate repeatCount="indefinite" dur="80.0133467s" begin="0s" xlink:href="#_R_G_L_10_G_M" fill="freeze" attributeName="opacity" from="0" to="1" keyTimes="0;0.0329441;0.0329442;1" values="0;0;1;1" keySplines="0 0 0 0;0 0 0 0;0 0 0 0" calcMode="spline"/><animateTransform repeatCount="indefinite" dur="80.0133467s" begin="0s" xlink:href="#_R_G_L_9_G" fill="freeze" attributeName="transform" from="0" to="180" type="rotate" additive="sum" keyTimes="0;0.0045872;0.0087573;1" values="0;0;180;180" keySplines="0.333 0 0.667 1;0.333 0 0.667 1;0 0 0 0" calcMode="spline"/><animateTransform repeatCount="indefinite" dur="80.0133467s" begin="0s" xlink:href="#_R_G_L_9_G" fill="freeze" attributeName="transform" from="0 0" to="1 1" type="scale" additive="sum" keyTimes="0;0.0087573;1" values="0 0;1 1;1 1" keySplines="1 0 0 1;0 0 0 0" calcMode="spline"/><animateTransform repeatCount="indefinite" dur="80.0133467s" begin="0s" xlink:href="#_R_G_L_9_G" fill="freeze" attributeName="transform" from="-77.804 -75.377" to="-77.804 -75.377" type="translate" additive="sum" keyTimes="0;1" values="-77.804 -75.377;-77.804 -75.377" keySplines="0 0 1 1" calcMode="spline"/><animate repeatCount="indefinite" dur="80.0133467s" begin="0s" xlink:href="#_R_G_L_8_G_M" fill="freeze" attributeName="opacity" from="0" to="1" keyTimes="0;0.0083403;0.0083403;1" values="0;0;1;1" keySplines="0 0 0 0;0 0 0 0;0 0 0 0" calcMode="spline"/><animate repeatCount="indefinite" dur="80.0133467s" begin="0s" xlink:href="#_R_G_L_7_G_D_0_P_0" fill="freeze" attributeName="d" attributeType="XML" from="M-334.06 58.63 C-334.06,58.63 -334,58.63 -334,58.63 C-334,58.63 -303.19,58.81 -303.19,58.81 C-303.19,58.81 -303.19,58.75 -303.19,58.75 C-303.19,58.75 -334.06,58.63 -334.06,58.63z " to="M-334 -20.12 C-334,-20.12 -334,58.63 -334,58.63 C-334,58.63 -303.19,58.81 -303.19,58.81 C-303.19,58.81 -303.44,38.69 -303.44,38.69 C-303.44,38.69 -334,-20.12 -334,-20.12z " keyTimes="0;0.0083403;0.0166806;1" values="M-334.06 58.63 C-334.06,58.63 -334,58.63 -334,58.63 C-334,58.63 -303.19,58.81 -303.19,58.81 C-303.19,58.81 -303.19,58.75 -303.19,58.75 C-303.19,58.75 -334.06,58.63 -334.06,58.63z ;M-334.06 58.63 C-334.06,58.63 -334,58.63 -334,58.63 C-334,58.63 -303.19,58.81 -303.19,58.81 C-303.19,58.81 -303.19,58.75 -303.19,58.75 C-303.19,58.75 -334.06,58.63 -334.06,58.63z ;M-334 -20.12 C-334,-20.12 -334,58.63 -334,58.63 C-334,58.63 -303.19,58.81 -303.19,58.81 C-303.19,58.81 -303.44,38.69 -303.44,38.69 C-303.44,38.69 -334,-20.12 -334,-20.12z ;M-334 -20.12 C-334,-20.12 -334,58.63 -334,58.63 C-334,58.63 -303.19,58.81 -303.19,58.81 C-303.19,58.81 -303.44,38.69 -303.44,38.69 C-303.44,38.69 -334,-20.12 -334,-20.12z " keySplines="0.65 0 0.236 1;0.65 0 0.236 1;0 0 0 0" calcMode="spline"/><animate repeatCount="indefinite" dur="80.0133467s" begin="0s" xlink:href="#_R_G_L_7_G_M" fill="freeze" attributeName="opacity" from="0" to="1" keyTimes="0;0.0083403;0.0083403;1" values="0;0;1;1" keySplines="0 0 0 0;0 0 0 0;0 0 0 0" calcMode="spline"/><animate repeatCount="indefinite" dur="80.0133467s" begin="0s" xlink:href="#_R_G_L_6_G_M" fill="freeze" attributeName="opacity" from="0" to="1" keyTimes="0;0.0141785;0.0141785;1" values="0;0;1;1" keySplines="0 0 0 0;0 0 0 0;0 0 0 0" calcMode="spline"/><animate repeatCount="indefinite" dur="80.0133467s" begin="0s" xlink:href="#_R_G_L_5_G_D_0_P_0" fill="freeze" attributeName="d" attributeType="XML" from="M-304.12 -36.56 C-304.12,-36.56 -334.31,-25.25 -334.31,-25.25 C-334.31,-25.25 -334.06,-25.12 -334.06,-25.12 C-334.06,-25.12 -303.75,-36.5 -303.75,-36.5 C-303.75,-36.5 -304.12,-36.56 -304.12,-36.56z " to="M-304.12 -36.56 C-304.12,-36.56 -334.31,-25.25 -334.31,-25.25 C-334.31,-25.25 -291.56,59.63 -291.56,59.63 C-291.56,59.63 -259.25,59.75 -259.25,59.75 C-259.25,59.75 -304.12,-36.56 -304.12,-36.56z " keyTimes="0;0.0141785;0.0225188;1" values="M-304.12 -36.56 C-304.12,-36.56 -334.31,-25.25 -334.31,-25.25 C-334.31,-25.25 -334.06,-25.12 -334.06,-25.12 C-334.06,-25.12 -303.75,-36.5 -303.75,-36.5 C-303.75,-36.5 -304.12,-36.56 -304.12,-36.56z ;M-304.12 -36.56 C-304.12,-36.56 -334.31,-25.25 -334.31,-25.25 C-334.31,-25.25 -334.06,-25.12 -334.06,-25.12 C-334.06,-25.12 -303.75,-36.5 -303.75,-36.5 C-303.75,-36.5 -304.12,-36.56 -304.12,-36.56z ;M-304.12 -36.56 C-304.12,-36.56 -334.31,-25.25 -334.31,-25.25 C-334.31,-25.25 -291.56,59.63 -291.56,59.63 C-291.56,59.63 -259.25,59.75 -259.25,59.75 C-259.25,59.75 -304.12,-36.56 -304.12,-36.56z ;M-304.12 -36.56 C-304.12,-36.56 -334.31,-25.25 -334.31,-25.25 C-334.31,-25.25 -291.56,59.63 -291.56,59.63 C-291.56,59.63 -259.25,59.75 -259.25,59.75 C-259.25,59.75 -304.12,-36.56 -304.12,-36.56z " keySplines="0.65 0 0.236 1;0.65 0 0.236 1;0 0 0 0" calcMode="spline"/><animate repeatCount="indefinite" dur="80.0133467s" begin="0s" xlink:href="#_R_G_L_5_G_M" fill="freeze" attributeName="opacity" from="0" to="1" keyTimes="0;0.0141785;0.0141785;1" values="0;0;1;1" keySplines="0 0 0 0;0 0 0 0;0 0 0 0" calcMode="spline"/><animate repeatCount="indefinite" dur="80.0133467s" begin="0s" xlink:href="#_R_G_L_4_G_M" fill="freeze" attributeName="opacity" from="0" to="1" keyTimes="0;0.0204337;0.0204337;1" values="0;0;1;1" keySplines="0 0 0 0;0 0 0 0;0 0 0 0" calcMode="spline"/><animate repeatCount="indefinite" dur="80.0133467s" begin="0s" xlink:href="#_R_G_L_3_G_D_0_P_0" fill="freeze" attributeName="d" attributeType="XML" from="M-258.87 34.75 C-258.87,34.75 -260.75,52.5 -260.75,52.5 C-260.75,52.5 -260.5,52.38 -260.5,52.38 C-260.5,52.38 -258.87,34.88 -258.87,34.88 C-258.87,34.88 -258.87,34.75 -258.87,34.75z " to="M-290.62 -33 C-290.62,-33 -290.62,-11.75 -290.62,-11.75 C-290.62,-11.75 -260.5,52.38 -260.5,52.38 C-260.5,52.38 -258.87,34.88 -258.87,34.88 C-258.87,34.88 -290.62,-33 -290.62,-33z " keyTimes="0;0.0204337;0.028774;1" values="M-258.87 34.75 C-258.87,34.75 -260.75,52.5 -260.75,52.5 C-260.75,52.5 -260.5,52.38 -260.5,52.38 C-260.5,52.38 -258.87,34.88 -258.87,34.88 C-258.87,34.88 -258.87,34.75 -258.87,34.75z ;M-258.87 34.75 C-258.87,34.75 -260.75,52.5 -260.75,52.5 C-260.75,52.5 -260.5,52.38 -260.5,52.38 C-260.5,52.38 -258.87,34.88 -258.87,34.88 C-258.87,34.88 -258.87,34.75 -258.87,34.75z ;M-290.62 -33 C-290.62,-33 -290.62,-11.75 -290.62,-11.75 C-290.62,-11.75 -260.5,52.38 -260.5,52.38 C-260.5,52.38 -258.87,34.88 -258.87,34.88 C-258.87,34.88 -290.62,-33 -290.62,-33z ;M-290.62 -33 C-290.62,-33 -290.62,-11.75 -290.62,-11.75 C-290.62,-11.75 -260.5,52.38 -260.5,52.38 C-260.5,52.38 -258.87,34.88 -258.87,34.88 C-258.87,34.88 -290.62,-33 -290.62,-33z " keySplines="0.65 0 0.236 1;0.65 0 0.236 1;0 0 0 0" calcMode="spline"/><animate repeatCount="indefinite" dur="80.0133467s" begin="0s" xlink:href="#_R_G_L_3_G_M" fill="freeze" attributeName="opacity" from="0" to="1" keyTimes="0;0.0204337;0.0204337;1" values="0;0;1;1" keySplines="0 0 0 0;0 0 0 0;0 0 0 0" calcMode="spline"/><animate repeatCount="indefinite" dur="80.0133467s" begin="0s" xlink:href="#_R_G_L_2_G_M" fill="freeze" attributeName="opacity" from="0" to="1" keyTimes="0;0.0262719;0.0262719;1" values="0;0;1;1" keySplines="0 0 0 0;0 0 0 0;0 0 0 0" calcMode="spline"/><animate repeatCount="indefinite" dur="80.0133467s" begin="0s" xlink:href="#_R_G_L_1_G_D_0_P_0" fill="freeze" attributeName="d" attributeType="XML" from="M-259.62 -48.31 C-259.62,-48.31 -289.94,-38.5 -289.94,-38.5 C-289.94,-38.5 -290,-38.5 -290,-38.5 C-290,-38.5 -259.75,-48.37 -259.75,-48.37 C-259.75,-48.37 -259.62,-48.31 -259.62,-48.31z " to="M-259.62 -48.31 C-259.62,-48.31 -290.06,-38.19 -290.06,-38.19 C-290.06,-38.19 -247.25,59.25 -247.25,59.25 C-247.25,59.25 -215.5,58.88 -215.5,58.88 C-215.5,58.88 -259.62,-48.31 -259.62,-48.31z " keyTimes="0;0.0262719;0.0346122;1" values="M-259.62 -48.31 C-259.62,-48.31 -289.94,-38.5 -289.94,-38.5 C-289.94,-38.5 -290,-38.5 -290,-38.5 C-290,-38.5 -259.75,-48.37 -259.75,-48.37 C-259.75,-48.37 -259.62,-48.31 -259.62,-48.31z ;M-259.62 -48.31 C-259.62,-48.31 -289.94,-38.5 -289.94,-38.5 C-289.94,-38.5 -290,-38.5 -290,-38.5 C-290,-38.5 -259.75,-48.37 -259.75,-48.37 C-259.75,-48.37 -259.62,-48.31 -259.62,-48.31z ;M-259.62 -48.31 C-259.62,-48.31 -290.06,-38.19 -290.06,-38.19 C-290.06,-38.19 -247.25,59.25 -247.25,59.25 C-247.25,59.25 -215.5,58.88 -215.5,58.88 C-215.5,58.88 -259.62,-48.31 -259.62,-48.31z ;M-259.62 -48.31 C-259.62,-48.31 -290.06,-38.19 -290.06,-38.19 C-290.06,-38.19 -247.25,59.25 -247.25,59.25 C-247.25,59.25 -215.5,58.88 -215.5,58.88 C-215.5,58.88 -259.62,-48.31 -259.62,-48.31z " keySplines="0.606 0 0.236 1;0.606 0 0.236 1;0 0 0 0" calcMode="spline"/><animate repeatCount="indefinite" dur="80.0133467s" begin="0s" xlink:href="#_R_G_L_1_G_M" fill="freeze" attributeName="opacity" from="0" to="1" keyTimes="0;0.0262719;0.0262719;1" values="0;0;1;1" keySplines="0 0 0 0;0 0 0 0;0 0 0 0" calcMode="spline"/><animate repeatCount="indefinite" dur="80.0133467s" begin="0s" xlink:href="#_R_G_L_0_G_M" fill="freeze" attributeName="opacity" from="0" to="1" keyTimes="0;0.0329441;0.0329442;1" values="0;0;1;1" keySplines="0 0 0 0;0 0 0 0;0 0 0 0" calcMode="spline"/><animate attributeType="XML" attributeName="opacity" dur="80s" from="0" to="1" xlink:href="#time_group"/></defs><g id="_R_G"><g id="_R_G_L_10_G_M"><g id="_R_G_L_10_G" transform=" translate(422, 150) translate(0, 0)"><path id="_R_G_L_10_G_D_0_P_0" fill="#ffffff" fill-opacity="1" fill-rule="nonzero" d=" M-216.31 53.75 C-216.31,53.75 -216.37,53.75 -216.37,53.75 C-216.37,53.75 -216.37,53.75 -216.37,53.75 C-216.37,53.75 -216.19,53.81 -216.19,53.81 C-216.19,53.81 -216.31,53.75 -216.31,53.75z "/></g></g><g id="_R_G_L_9_G" transform=" translate(149.648, 150)"><path id="_R_G_L_9_G_D_0_P_0" fill="#f7ece1" fill-opacity="1" fill-rule="nonzero" d=" M134.55 0.25 C134.55,0.25 21.1,0.25 21.1,0.25 C9.57,0.25 0.25,9.57 0.25,21.1 C0.25,21.1 0.25,129.7 0.25,129.7 C0.25,141.18 9.57,150.5 21.1,150.5 C21.1,150.5 134.55,150.5 134.55,150.5 C146.04,150.5 155.36,141.18 155.36,129.7 C155.36,129.7 155.36,21.1 155.36,21.1 C155.36,9.57 146.04,0.25 134.55,0.25z "/></g><g id="_R_G_L_8_G_M"><g id="_R_G_L_8_G" transform=" translate(103.09, 169.4) translate(-15.292, -39.331)"><path id="_R_G_L_8_G_D_0_P_0" fill="#fe7c42" fill-opacity="1" fill-rule="nonzero" d=" M30.34 59.16 C30.34,59.16 0.25,0.25 0.25,0.25 C0.25,0.25 0.25,73.21 0.25,73.21 C0.25,76.07 2.5,78.41 5.28,78.41 C5.28,78.41 25.31,78.41 25.31,78.41 C28.08,78.41 30.34,76.07 30.34,73.21 C30.34,73.21 30.34,59.16 30.34,59.16z "/></g></g><g id="_R_G_L_7_G_M"><g id="_R_G_L_7_G" transform=" translate(422, 150) translate(0, 0)"><path id="_R_G_L_7_G_D_0_P_0" fill="#ffffff" fill-opacity="1" fill-rule="nonzero" d=" M-334.06 58.63 C-334.06,58.63 -334,58.63 -334,58.63 C-334,58.63 -303.19,58.81 -303.19,58.81 C-303.19,58.81 -303.19,58.75 -303.19,58.75 C-303.19,58.75 -334.06,58.63 -334.06,58.63z "/></g></g><g id="_R_G_L_6_G_M"><g id="_R_G_L_6_G" transform=" translate(124.744, 162.268) translate(-35.039, -46.462)"><path id="_R_G_L_6_G_D_0_P_0" fill="#ff692f" fill-opacity="1" fill-rule="nonzero" d=" M68.27 85.22 C68.27,85.22 30.64,3.59 30.64,3.59 C29.56,1.38 27.08,0.25 24.74,0.94 C24.74,0.94 4.76,6.88 4.76,6.88 C1.72,7.79 0.25,11.39 1.72,14.25 C1.72,14.25 40.39,89.9 40.39,89.9 C41.26,91.59 42.99,92.67 44.86,92.67 C44.86,92.67 63.72,92.59 63.72,92.59 C67.44,92.59 69.83,88.64 68.27,85.22z "/></g></g><g id="_R_G_L_5_G_M"><g id="_R_G_L_5_G" transform=" translate(422, 150) translate(0, 0)"><path id="_R_G_L_5_G_D_0_P_0" fill="#ffffff" fill-opacity="1" fill-rule="nonzero" d=" M-304.12 -36.56 C-304.12,-36.56 -334.31,-25.25 -334.31,-25.25 C-334.31,-25.25 -334.06,-25.12 -334.06,-25.12 C-334.06,-25.12 -303.75,-36.5 -303.75,-36.5 C-303.75,-36.5 -304.12,-36.56 -304.12,-36.56z "/></g></g><g id="_R_G_L_4_G_M"><g id="_R_G_L_4_G" transform=" translate(146.852, 159.537) translate(-14.881, -41.867)"><path id="_R_G_L_4_G_D_0_P_0" fill="#fe7c42" fill-opacity="1" fill-rule="nonzero" d=" M29.51 68.01 C29.51,68.01 0.25,0.25 0.25,0.25 C0.25,0.25 0.29,19.93 0.29,19.93 C0.29,19.93 29.51,83.48 29.51,83.48 C29.51,83.48 29.51,68.01 29.51,68.01z "/></g></g><g id="_R_G_L_3_G_M"><g id="_R_G_L_3_G" transform=" translate(422, 150) translate(0, 0)"><path id="_R_G_L_3_G_D_0_P_0" fill="#ffffff" fill-opacity="1" fill-rule="nonzero" d=" M-258.87 34.75 C-258.87,34.75 -260.75,52.5 -260.75,52.5 C-260.75,52.5 -260.5,52.38 -260.5,52.38 C-260.5,52.38 -258.87,34.88 -258.87,34.88 C-258.87,34.88 -258.87,34.75 -258.87,34.75z "/></g></g><g id="_R_G_L_2_G_M"><g id="_R_G_L_2_G" transform=" translate(168.29, 156.047) translate(-34.367, -52.683)"><path id="_R_G_L_2_G_D_0_P_0" fill="#ff692f" fill-opacity="1" fill-rule="nonzero" d=" M67.14 97.96 C67.14,97.96 29.94,3.89 29.94,3.89 C28.95,1.51 26.39,0.25 23.96,0.99 C23.96,0.99 4.71,6.54 4.71,6.54 C1.77,7.4 0.25,10.74 1.46,13.6 C1.46,13.6 39.57,102.04 39.57,102.04 C40.35,103.9 42.17,105.12 44.16,105.12 C44.16,105.12 62.5,105.07 62.5,105.07 C66.06,105.03 68.48,101.34 67.14,97.96z "/></g></g><g id="_R_G_L_1_G_M"><g id="_R_G_L_1_G" transform=" translate(422, 150) translate(0, 0)"><path id="_R_G_L_1_G_D_0_P_0" fill="#ffffff" fill-opacity="1" fill-rule="nonzero" d=" M-259.62 -48.31 C-259.62,-48.31 -289.94,-38.5 -289.94,-38.5 C-289.94,-38.5 -290,-38.5 -290,-38.5 C-290,-38.5 -259.75,-48.37 -259.75,-48.37 C-259.75,-48.37 -259.62,-48.31 -259.62,-48.31z "/></g></g><g id="_R_G_L_0_G_M"><g id="_R_G_L_0_G" transform=" translate(190.507, 146.814) translate(-14.967, -56.281)"><path id="_R_G_L_0_G_D_0_P_0" fill="#fe7c42" fill-opacity="1" fill-rule="nonzero" d=" M29.69 112.31 C29.69,112.31 29.64,6.19 29.64,6.19 C29.64,2.72 26.43,0.25 23.23,1.2 C23.23,1.2 3.89,6.97 3.89,6.97 C1.72,7.62 0.25,9.61 0.25,11.91 C0.25,11.91 0.25,37.71 0.25,37.71 C0.25,37.88 0.29,37.92 0.34,38.1 C0.34,38.1 29.69,112.31 29.69,112.31z "/></g></g></g><g id="time_group"/></svg>